# xmcd CD database file
#
# Track frame offsets:
#	150
#	41495
#	74225
#	103600
#	155535
#	194470
#
# Disc length: 3022 seconds
#
# Revision: 4
# Processed by: cddbd v1.5.2PL0 Copyright (c) Steve Scherf et al.
# Submitted via: CDex 1.51
#
DISCID=540bcc06
DTITLE=Sonny Rollins - Global Warming
DYEAR=1998
DGENRE=Jazz
TTITLE0=Island Lady
TTITLE1=Echo-Side Blue
TTITLE2=Global Warming
TTITLE3=Mother Nature's Blues
TTITLE4=Change Partners
TTITLE5=Clear-Cut Boogie
EXTD=with Stephen Scott: piano\nClifton Anderson: trombone\nBob Cranshaw: electric bass\nIdris Muhammad: drums\nVictor See Yuen: percussion\nPerry Wilson: drums\n\nA 1998 Milestone release YEAR: 1998
EXTT0=
EXTT1=
EXTT2=
EXTT3=
EXTT4=
EXTT5=
PLAYORDER=
